# xmcd
#
# Track frame offsets:
#	187
#	18395
#	34377
#	49630
#	68007
#	79757
#	93097
#	104910
#	117207
#	132152
#	149607
#	169195
#	182310
#	196130
#	208585
#	231460
#	253875
#	265505
#
# Disc length: 3724 seconds
#
# Revision: 1
# Processed by: cddbd v1.5.1PL0 Copyright (c) Steve Scherf et al.
# Submitted via: CDex 1.50Beta5
#
DISCID=fd0e8a12
DTITLE=マントヴァーニ - 枯葉/マントヴァーニ
DYEAR=1900
DGENRE=
TTITLE0=恋に過ごせし宵
TTITLE1=愛の泉
TTITLE2=ジェラシー
TTITLE3=枯葉
TTITLE4=アンダルシア(そよ風と私)
TTITLE5=コメプリマ
TTITLE6=スエーディッシュ・ラプソディ
TTITLE7=アネマエコーレ
TTITLE8=ライムライト
TTITLE9=マラゲーニア
TTITLE10=スターダスト
TTITLE11=アマポーラ
TTITLE12=虹のかなたに
TTITLE13=トゥナイト
TTITLE14=サンライズサンセット
TTITLE15=煙が目にしみる
TTITLE16=わが心のサンフランシスコ
TTITLE17=ばら色の人生
EXTD=
EXTT0=
EXTT1=
EXTT2=
EXTT3=
EXTT4=
EXTT5=
EXTT6=
EXTT7=
EXTT8=
EXTT9=
EXTT10=
EXTT11=
EXTT12=
EXTT13=
EXTT14=
EXTT15=
EXTT16=
EXTT17=
PLAYORDER=
